<!-- Generator: Adobe Illustrator 25.2.1, SVG Export Plug-In  -->
<svg version="1.1" xmlns="http://www.w3.org/2000/svg" xmlns:xlink="http://www.w3.org/1999/xlink" x="0px" y="0px"
	 width="661.04px" height="186.91px" viewBox="0 0 661.04 186.91"
	 style="overflow:visible;enable-background:new 0 0 661.04 186.91;" xml:space="preserve">
<style type="text/css">
	.st0{fill:#00ADBD;}
	.st1{fill:#FFFFFF;}
</style>
<defs>
</defs>
<g>
	<g>
		<path class="st0" d="M397.6,180.99c-3.03-0.34-3.34-0.74-3.34-2.11c0-0.65,0.37-3.31,0.5-4.27l4.24-30.1
			c0.99-7.31,1.02-7.31,7.59-7.31c6.47,0,6.47,0,7.83,7.12l5.51,27.19c0.09,0.37,0.15,0.46,0.53,0.46c0.37,0,0.43-0.09,0.5-0.5
			l5.45-27.03c1.36-7.24,1.39-7.24,7.89-7.24c6.44,0,6.44,0,7.46,7.34l4.43,31.33c0.09,0.68,0.37,2.41,0.37,3
			c0,1.52-0.71,1.67-2.94,2.01c-0.83,0.16-2.85,0.4-3.56,0.4c-1.36,0-1.82-0.22-2.14-3.22l-3.68-31.43c-0.06-0.34-0.06-0.4-0.47-0.4
			c-0.34,0-0.4,0.03-0.46,0.34l-6.1,28.64c-1.18,5.88-1.18,5.88-6.78,5.88c-5.7,0-5.7,0-6.9-5.88l-6.1-28.58
			c-0.06-0.34-0.12-0.4-0.47-0.4c-0.34,0-0.4,0.06-0.46,0.46l-3.56,30.99c-0.37,3.41-0.87,3.59-2.23,3.59
			C400.08,181.3,399.27,181.15,397.6,180.99z"/>
		<path class="st0" d="M470.94,171.86h-14.89c-2.82,0-2.85-0.03-4.3-2.82c-1.08-2.08-1.49-2.79-1.49-3.69c0-0.99,0.68-2.01,1.7-3.44
			l16.2-22.85c1.02-1.46,1.64-2.2,2.82-2.2c0.77,0,1.86,0.25,4.58,0.96c3.72,0.99,3.84,1.39,3.84,4.4v22.04h1.64
			c3.99,0,3.99,0,3.99,3.78c0,3.81,0,3.81-3.99,3.81h-1.64v5.08c0,4.18,0,4.18-4.24,4.18c-4.21,0-4.21,0-4.21-4.18V171.86z
			 M471.4,164.52V146.9l-12.35,17.62H471.4z"/>
		<path class="st0" d="M491.48,177.22c-1.27-0.81-1.8-1.3-1.8-1.98c0-0.99,0.74-1.92,1.92-3.81c1.05-1.7,1.67-2.26,2.41-2.26
			c0.71,0,1.18,0.34,2.08,0.93c3.59,2.29,7.18,3.56,11.24,3.56c5.17,0,7.99-1.7,7.99-4.95c0-3.16-3.59-4.52-9.57-5.73
			c-10.62-2.17-15.02-5.82-15.02-13.38c0-7.9,6.72-12.97,15.88-12.97c6.23,0,10.5,1.61,13.72,3.62c0.99,0.59,1.61,1.18,1.61,1.8
			c0,0.71-0.34,1.3-1.55,3.22c-1.21,1.89-1.77,2.85-2.73,2.85c-0.62,0-1.3-0.43-2.17-0.96c-2.04-1.36-5.23-2.48-8.89-2.48
			c-4.95,0-7.18,1.92-7.18,4.71c0,2.82,2.35,4.3,8.73,5.51c11.02,2.04,15.85,5.98,15.85,13.44c0,7.77-6.41,13.38-16.69,13.38
			C499.81,181.71,495.07,179.54,491.48,177.22z"/>
	</g>
	<path class="st1" d="M124.91,0l-19.34,22.8c0,0-55.97-0.01-60.52-0.01c-3.76,0-6.6,0.78-8.49,2.38c-1.9,1.59-2.85,3.53-2.85,5.83
		c0,1.66,0.79,3.15,2.37,4.48c1.52,1.38,5.12,2.66,10.82,3.85c14.09,3.05,24.18,6.11,30.28,9.23c6.11,3.12,10.54,6.98,13.32,11.58
		c2.78,4.61,4.16,9.77,4.16,15.47c0,6.69-1.85,12.88-5.55,18.53c-3.69,5.66-8.87,9.94-15.52,12.87c-6.64,2.92-15.02,4.38-25.12,4.38
		c-17.74,0-30.04-3.41-36.87-10.25C4.77,94.26,0.9,85.57,0,75.02l30.66-1.91c0.66,4.99,2.02,8.79,4.07,11.4
		c3.3,4.23,8.05,6.34,14.22,6.34c4.6,0,8.14-1.08,10.64-3.24c2.49-2.17,3.73-4.67,3.73-7.52c0-2.7-1.18-5.12-3.54-7.27
		c-2.38-2.14-7.88-4.15-16.53-6.05C29.11,63.58,19.02,59.34,13,54.07C6.93,48.8,3.89,42.08,3.89,33.91c0-5.39,1.56-10.46,4.67-15.23
		c3.1-4.77,8.14-10.56,14.38-13.3c6.24-2.72,14.28-5.36,25.16-5.36L124.91,0z"/>
	<rect x="106.27" y="23.05" class="st1" width="28.95" height="86.51"/>
	<path class="st1" d="M202.57,33.89h27.17v71.43l0.07,3.35c0,4.74-1.01,9.26-3.02,13.58c-2.02,4.29-4.7,7.77-8.05,10.43
		c-3.37,2.66-7.61,4.59-12.76,5.77c-5.15,1.17-11.05,1.79-17.69,1.79c-15.21,0-25.64-2.28-31.31-6.84
		c-5.68-4.55-8.51-10.65-8.51-18.27c0-0.95,0.05-2.24,0.15-3.85l28.15,3.23c0.71,2.61,1.8,4.41,3.28,5.39
		c2.12,1.45,4.79,2.2,8.02,2.2c4.17,0,7.29-1.1,9.35-3.35c2.06-2.23,3.09-6.12,3.09-11.68V95.6c-2.85,3.37-5.69,5.83-8.54,7.35
		c-4.46,2.38-9.28,3.58-14.45,3.58c-10.11,0-18.28-4.43-24.5-13.26c-4.42-6.28-6.63-14.57-6.63-24.87c0-11.79,2.85-20.76,8.55-26.94
		c5.69-6.18,13.15-9.27,22.36-9.27c5.89,0,10.74,1,14.56,2.99c3.82,1.99,7.39,5.29,10.72,9.89V33.89z M175.34,70.56
		c0,5.48,1.16,9.52,3.49,12.15c2.32,2.65,5.37,3.96,9.17,3.96c3.6,0,6.61-1.36,9.06-4.1c2.43-2.73,3.65-6.85,3.65-12.36
		c0-5.52-1.28-9.73-3.84-12.65c-2.55-2.93-5.67-4.4-9.37-4.4c-3.7,0-6.65,1.34-8.86,4.04C176.45,59.88,175.34,64.33,175.34,70.56"/>
	<path class="st1" d="M243.37,33.89h26.96V46.2c4.05-5.04,8.14-8.63,12.27-10.79c4.14-2.14,9.18-3.23,15.13-3.23
		c8.03,0,14.32,2.37,18.86,7.15c4.55,4.79,6.81,12.15,6.81,22.14v48.08h-29.15V67.91c0-4.74-0.88-8.11-2.64-10.08
		c-1.77-1.98-4.25-2.96-7.43-2.96c-3.53,0-6.39,1.33-8.57,3.99c-2.2,2.67-3.31,7.45-3.31,14.34v36.36h-28.95V33.89z"/>
	<path class="st1" d="M337.04,154.72V33.89h27.1v11.17c3.77-4.71,7.21-7.87,10.34-9.53c4.23-2.24,8.9-3.35,14.04-3.35
		c10.12,0,17.94,3.87,23.48,11.61c5.53,7.74,8.29,17.31,8.29,28.71c0,12.59-3.01,22.2-9.05,28.82c-6.03,6.63-13.66,9.94-22.88,9.94
		c-4.46,0-8.53-0.75-12.21-2.28c-3.68-1.52-6.98-3.77-9.87-6.76v16.76L337.04,154.72z M366.07,71.92c0,5.99,1.26,10.45,3.78,13.34
		c2.51,2.91,5.71,4.36,9.56,4.36c3.38,0,6.22-1.39,8.5-4.18c2.28-2.77,3.43-7.5,3.43-14.16c0-6.13-1.2-10.64-3.57-13.51
		c-2.37-2.88-5.28-4.32-8.71-4.32c-3.71,0-6.81,1.45-9.28,4.35C367.3,60.7,366.07,65.41,366.07,71.92"/>
	<path class="st1" d="M426.82,71.94c0-11.53,3.89-21.05,11.68-28.53c7.78-7.48,18.3-11.23,31.54-11.23
		c15.14,0,26.59,4.39,34.33,13.18c6.21,7.08,9.32,15.8,9.32,26.15c0,11.64-3.87,21.17-11.58,28.59
		c-7.71,7.44-18.37,11.16-31.99,11.16c-12.15,0-21.98-3.09-29.48-9.26C431.42,94.35,426.82,84.35,426.82,71.94 M455.87,71.88
		c0,6.75,1.36,11.74,4.08,14.98c2.72,3.23,6.16,4.85,10.28,4.85c4.18,0,7.61-1.58,10.29-4.78c2.67-3.19,4.02-8.29,4.02-15.33
		c0-6.57-1.35-11.46-4.05-14.66c-2.7-3.22-6.06-4.83-10.05-4.83c-4.21,0-7.7,1.62-10.46,4.89
		C457.25,60.25,455.87,65.21,455.87,71.88"/>
	<path class="st1" d="M519.45,86.03l27.99-0.22c1.19,3.45,2.85,5.89,4.99,7.37c2.13,1.49,4.98,2.23,8.55,2.23
		c3.88,0,6.9-0.84,9.04-2.49c1.67-1.24,2.48-2.78,2.48-4.63c0-2.09-1.09-3.7-3.26-4.84c-1.55-0.81-5.7-1.8-12.46-3.01
		c-10.05-1.75-17.05-3.38-20.96-4.87c-3.91-1.49-7.21-4.01-9.88-7.57c-2.7-3.56-4.04-7.62-4.04-12.18c0-4.98,1.45-9.28,4.35-12.88
		c2.89-3.61,6.89-6.31,11.96-8.1c5.07-1.77,11.89-2.66,20.43-2.66c9.01,0,15.68,0.69,19.98,2.07c4.29,1.38,7.88,3.52,10.74,6.41
		c2.88,2.9,5.08,9.69,7,14.62L569,55.06c-0.72-2.41-1.9-4.19-3.57-5.32c-2.26-1.51-5-2.27-8.23-2.27c-3.26,0-5.65,0.58-7.14,1.74
		c-1.49,1.16-2.22,2.57-2.22,4.24c0,1.85,0.95,3.26,2.85,4.2c1.89,0.96,6.03,1.81,12.38,2.56c9.64,1.11,16.81,2.63,21.5,4.57
		c4.71,1.94,8.31,4.71,10.79,8.33c2.5,3.6,3.73,7.57,3.73,11.89c0,4.36-1.3,8.61-3.95,12.75c-2.62,4.13-6.79,7.41-12.46,9.85
		c-5.68,2.45-13.39,3.67-23.18,3.67c-13.82,0-21.83-2.11-27.7-6.04C525.94,101.28,521.1,93.29,519.45,86.03"/>
	<path class="st1" d="M644.11,10.75v23.13h15.95v21.27h-15.95v26.8c0,3.22,0.32,5.36,0.94,6.39c0.94,1.61,2.59,2.42,4.98,2.42
		c2.13,0,10.91,0.15,10.91,0.15l0.09,19.25c-7.17,1.58-13.79,1.11-19.98,1.11c-7.2,0-12.55-0.92-15.96-2.78
		c-3.41-1.84-5.95-4.65-7.57-8.43c-1.64-3.76-2.47-9.87-2.47-18.31V55.15h-10.64V33.89h10.64l-0.1-29.05L644.11,10.75z"/>
	<polygon class="st0" points="337.04,186.91 366.28,151.16 366.28,129.74 337.04,165.49 	"/>
</g>
</svg>
